<svg data-v-0dd9719b="" version="1.0" xmlns="http://www.w3.org/2000/svg" xmlns:xlink="http://www.w3.org/1999/xlink" width="100%" height="100%" viewBox="0 0 340.000000 250.000000" preserveAspectRatio="xMidYMid meet" color-interpolation-filters="sRGB" style="margin: auto;"> <rect data-v-0dd9719b="" x="0" y="0" width="100%" height="100%" fill="#fff" fill-opacity="1" class="background"></rect> <rect data-v-0dd9719b="" x="0" y="0" width="100%" height="100%" fill="url(#watermark)" fill-opacity="1" class="watermarklayer"></rect> <g data-v-0dd9719b="" fill="#333" class="icon-text-wrapper icon-svg-group iconsvg" transform="translate(50.724998474121094,94.96576118469238)"><g class="iconsvg-imagesvg" transform="translate(0,0)"><g><rect fill="#333" fill-opacity="0" stroke-width="2" x="0" y="0" width="60" height="60.068478064994096" class="image-rect"></rect> <svg x="0" y="0" width="60" height="60.068478064994096" filtersec="colorsb165851979" class="image-svg-svg primary" style="overflow: visible;"><svg xmlns="http://www.w3.org/2000/svg" viewBox="-0.00839904323220253 0.0032493751496076584 126.69839477539062 126.8424072265625"><title>资源 36</title><path d="M97.21 59.23c-7.22 0-14.44.06-21.66 0-5.21-.06-7.74-2.37-7.81-6.82S70.52 45 75.6 45q21.66-.16 43.32 0c4.61 0 7.77 3.21 7.77 7.27 0 4.24-2.82 6.83-7.82 6.9-7.22.09-14.44 0-21.66 0zM29.7 81.78H7.61C3 81.72.12 79.11 0 75a7 7 0 0 1 7.19-7.34q22.3-.25 44.6 0a7.38 7.38 0 0 1 7.5 7.56c-.27 3.87-3.42 6.55-7.9 6.58-7.23.01-14.46-.02-21.69-.02zM67.74 97.19V75.1c0-4.49 2.88-7.48 6.9-7.47s6.84 2.71 6.89 7.1q.19 22.5 0 45c0 4.79-2.85 7.25-7.14 7.11s-6.62-2.83-6.64-7.56c-.04-7.37-.01-14.73-.01-22.09zM59.47 29.64V50.5c0 3.47-1 6.57-4.41 8.15-4.87 2.25-9.72-1-9.75-6.65q-.09-22.09 0-44.19c0-4.74 2.39-7.5 6.53-7.79 3.81-.28 7.31 2.98 7.51 7.53.26 6.12.1 12.27.12 18.4.01 1.23 0 2.46 0 3.69z" fill="#fbb355"></path><path d="M41 104.47c-3.69 0-7.37.11-11.05 0-4.55-.19-7.23-3-7.25-7.16s2.79-7.06 7.27-7.15c7.22-.15 14.46-.14 21.68 0 4.48.09 7.81 3.48 7.71 7.41-.1 3.77-3.34 6.76-7.72 6.91-3.64.1-7.15 0-10.64-.01zM36.82 41c0 3.54.16 7.09 0 10.62-.27 4.83-3.14 7.65-7.35 7.55-4.43-.1-6.76-2.74-6.79-7.85q-.06-10.41 0-20.83c0-4.67 2.49-7.62 6.46-7.92s7.36 2.86 7.66 7.4c.2 3.67.02 7.35.02 11.03zM85.85 36.63H74.42c-3.62 0-5.91-1.92-6.58-5.46-.75-3.91.91-6.74 4.52-8a9.69 9.69 0 0 1 3.16-.69c6.93-.06 13.88-.18 20.81 0 5.17.14 8.15 3.46 7.72 8-.34 3.63-2.67 6-6.36 6.15-3.94.1-7.89-.01-11.84 0zM104.11 86.19c0 3.68.09 7.36 0 11-.13 4.08-2.72 6.89-6.38 7.17s-7.06-2-7.27-6.05c-.43-8-.5-16-.17-24a6.75 6.75 0 0 1 7.33-6.67c3.78.26 6.39 3.18 6.5 7.52.07 3.66-.01 7.35-.01 11.03z" fill="#fa6663"></path></svg></svg> <!----></g></g> <g transform="translate(67,1.8179893493652344)"><g data-gra="path-name" fill-rule="" class="tp-name iconsvg-namesvg" transform="translate(0,0)"><g transform="scale(1)"><g><path d="M9.99-25.92L9.99-21.6 4.37-21.6 4.37-31.5 18.95-31.5 18-36.05 24.39-36.31 25.29-31.5 39.78-31.5 39.78-21.55 34.2-21.55 34.2-25.92 9.99-25.92ZM41.27-19.71L41.27-14.13 25.74-14.13 25.74-1.62Q25.74 0.14 25.43 1.28 25.11 2.43 24.37 3.13 23.63 3.82 22.36 4.16 21.11 4.5 19.21 4.63L19.21 4.63 14.76 5 13.18-0.72 17.82-1.08Q19.17-1.17 19.62-1.53 20.07-1.89 20.07-3.24L20.07-3.24 20.07-14.13 2.92-14.13 2.92-19.71 41.27-19.71ZM86.63 0.18L83.84 5.08Q80.46 3.46 77.83 2 75.19 0.54 73.08-0.99L73.08-0.99Q71.06 0.54 68.44 2.07 65.84 3.6 62.41 5.17L62.41 5.17 60.34 1.21Q59.9 2.07 59.4 2.92 58.91 3.78 58.32 4.72L58.32 4.72 53.69 1.93Q55.44-0.58 56.54-2.7 57.65-4.81 58.25-7.15 58.86-9.49 59.06-12.4 59.27-15.3 59.27-19.39L59.27-19.39 59.27-31.14 69.44-31.14 69.44-35.87 74.79-35.68 74.79-31.14 85.28-31.14 85.28-25.92 82.89-21.24 77.94-22.59 79.78-25.79 74.79-25.79 74.79-20.07 82.98-20.07 82.98-14.89Q81.94-12.11 80.59-9.56 79.25-7.02 77-4.54L77-4.54Q78.88-3.33 81.22-2.21 83.56-1.08 86.63 0.18L86.63 0.18ZM58.81-29.52L55.71-24.97Q55.03-25.61 54.16-26.39 53.28-27.18 52.34-27.97 51.39-28.75 50.42-29.5 49.45-30.24 48.65-30.78L48.65-30.78 51.7-35.1Q52.52-34.56 53.46-33.84 54.41-33.12 55.4-32.35 56.39-31.59 57.26-30.85 58.14-30.11 58.81-29.52L58.81-29.52ZM69.44-25.79L64.39-25.79 64.39-20.07 69.44-20.07 69.44-25.79ZM57.24-19.75L54.18-14.85Q53.41-15.57 52.38-16.47 51.34-17.37 50.27-18.25 49.19-19.13 48.17-19.89 47.16-20.65 46.44-21.15L46.44-21.15 49.37-25.74Q50.13-25.24 51.16-24.5 52.2-23.76 53.28-22.95 54.36-22.14 55.42-21.29 56.48-20.43 57.24-19.75L57.24-19.75ZM61.25-0.49L61.25-0.49Q63.67-1.53 65.61-2.52 67.55-3.51 69.08-4.54L69.08-4.54Q67.59-6.21 66.42-8.17 65.25-10.13 64.31-12.6L64.31-12.6 68.44-14.71 64.35-14.71Q64.31-12.51 64.13-10.66 63.95-8.82 63.59-7.13 63.23-5.44 62.66-3.82 62.1-2.21 61.25-0.49ZM73.03-7.79L73.03-7.79Q74.7-9.49 75.64-11.23 76.59-12.96 77.27-14.71L77.27-14.71 69.08-14.71Q70.52-10.57 73.03-7.79ZM54.09-12.11L56.61-11.29Q56.12-9.54 55.53-7.63 54.95-5.71 54.31-3.78 53.69-1.84 53.03 0 52.38 1.84 51.7 3.46L51.7 3.46 46.48 1.71Q47.93-1.71 49.16-5.47 50.4-9.22 51.39-13.05L51.39-13.05 54.09-12.11ZM98.91-36.13L104.22-34.83Q103.64-32.58 102.96-30.49 102.28-28.39 101.43-26.32L101.43-26.32 101.43 4.18 95.85 4.18 95.85-15.62Q95.22-14.54 94.5-13.46 93.78-12.38 93.02-11.25L93.02-11.25 89.69-16.92Q91.03-18.81 92.39-21.08 93.73-23.36 94.95-25.83 96.17-28.3 97.2-30.91 98.23-33.52 98.91-36.13L98.91-36.13ZM119.03-21.42L130.37-21.42 130.37-16.06 102.47-16.06 102.47-21.42 113.49-21.42 113.49-25.43 105.08-25.43 105.08-30.6 113.49-30.6 113.49-35.87 119.03-35.64 119.03-30.6 127.66-30.6 127.66-25.43 119.03-25.43 119.03-21.42ZM119.03-6.57L119.03-1.84 129.87-1.84 129.87 3.51 102.51 3.51 102.51-1.84 113.49-1.84 113.49-6.57 105.08-6.57 105.08-11.79 113.49-11.79 113.49-14.94 119.03-14.71 119.03-11.79 127.66-11.79 127.66-6.57 119.03-6.57ZM164.97-23.13L174.47-23.13 174.47-18.13 135.5-18.13 135.5-23.13 145.31-23.13 144.27-27.54 138.02-27.54 138.02-32.53 152.24-32.53 151.47-35.77 157.5-36.05 158.27-32.53 171.99-32.53 171.99-27.54 166.19-27.54 164.97-23.13ZM150.07-27.54L151.06-23.13 159.07-23.13 160.16-27.54 150.07-27.54ZM140.04 3.73L140.04-16.02 170.01-16.02 170.01 3.73 140.04 3.73ZM164.3-10.89L145.71-10.89 145.71-8.5 164.3-8.5 164.3-10.89ZM145.71-1.21L164.3-1.21 164.3-3.65 145.71-3.65 145.71-1.21Z" transform="translate(-2.9200000762939453, 36.310001373291016)"></path></g> <!----> <!----> <!----> <!----> <!----> <!----> <!----></g></g> <g data-gra="path-slogan" fill-rule="" class="tp-slogan iconsvg-slogansvg" fill="#333" transform="translate(5,47.480003356933594)"><rect x="0" height="1" y="3.9750003814697266" width="34.790000915527344"></rect> <rect height="1" y="3.9750003814697266" width="34.790000915527344" x="126.76000213623047"></rect> <g transform="translate(37.790000915527344,0)"><g transform="scale(1)"><path d="M2.30-8.58L6.61-1.64L6.61-8.58L7.73-8.58L7.73 0L6.42 0L2.06-6.94L2.02-6.94L2.02 0L0.89 0L0.89-8.58L2.30-8.58ZM9.70-8.58L10.88-8.58L10.88 0L9.70 0L9.70-8.58ZM14.25-8.58L18.56-1.64L18.56-8.58L19.69-8.58L19.69 0L18.38 0L14.02-6.94L13.97-6.94L13.97 0L12.84 0L12.84-8.58L14.25-8.58ZM27.89-3.61L25.27-3.61L25.27-4.59L29.02-4.59L29.02 0L28.27 0L27.98-1.08Q27 0.09 25.17 0.14L25.17 0.14Q23.44 0.14 22.50-0.75L22.50-0.75Q21.09-2.06 21.14-4.36L21.14-4.36Q21.47-8.63 25.22-8.81L25.22-8.81Q28.41-8.63 28.88-6L28.88-6L27.75-6Q27.28-7.78 25.17-7.83L25.17-7.83Q22.50-7.64 22.36-4.31L22.36-4.31Q22.36-0.75 25.22-0.75L25.22-0.75Q26.25-0.75 27-1.31L27-1.31Q27.94-2.06 27.89-3.61L27.89-3.61ZM34.03-7.64L31.97-7.64L31.97-4.97L34.03-4.97Q35.86-4.92 35.81-6.38L35.81-6.38Q35.81-7.64 34.03-7.64L34.03-7.64ZM34.50 0L30.80 0L30.80-8.58L34.59-8.58Q36.89-8.48 36.98-6.42L36.98-6.42Q36.98-5.16 35.86-4.64L35.86-4.64Q37.45-4.08 37.45-2.53L37.45-2.53Q37.31-0.09 34.50 0L34.50 0ZM34.22-3.98L31.97-3.98L31.97-0.98L34.45-0.98Q36.23-1.03 36.28-2.53L36.28-2.53Q36.28-3.98 34.22-3.98L34.22-3.98ZM45.56-4.27L45.56-4.27Q45.38-7.64 42.56-7.83L42.56-7.83Q39.70-7.69 39.56-4.27L39.56-4.27Q39.70-0.94 42.56-0.80L42.56-0.80Q45.38-0.98 45.56-4.27ZM46.73-4.27L46.73-4.27Q46.45 0 42.56 0.14L42.56 0.14Q38.63 0 38.34-4.27L38.34-4.27Q38.58-8.72 42.56-8.81L42.56-8.81Q46.45-8.67 46.73-4.27ZM50.72-1.92L50.72-2.77L51.80-2.77L51.80-2.16Q51.80-0.75 53.11-0.75L53.11-0.75Q54.47-0.75 54.47-2.25L54.47-2.25L54.47-8.58L55.64-8.58L55.64-2.30Q55.59 0.09 53.16 0.14L53.16 0.14Q50.86 0.09 50.72-1.92L50.72-1.92ZM57.61-8.58L58.78-8.58L58.78 0L57.61 0L57.61-8.58ZM66.42 0L65.58-2.48L62.11-2.48L61.22 0L60.05 0L63.28-8.58L64.59-8.58L67.69 0L66.42 0ZM63.84-7.31L62.48-3.52L65.16-3.52L63.89-7.31L63.84-7.31ZM75.66-8.58L72.42-3.47L72.42 0L71.25 0L71.25-3.47L68.02-8.58L69.38-8.58L71.81-4.45L74.30-8.58L75.66-8.58ZM76.88-8.58L78.05-8.58L78.05 0L76.88 0L76.88-8.58ZM81.42-8.58L85.73-1.64L85.73-8.58L86.86-8.58L86.86 0L85.55 0L81.19-6.94L81.14-6.94L81.14 0L80.02 0L80.02-8.58L81.42-8.58Z" transform="translate(-0.890625, 8.8125)"></path></g></g></g></g></g><defs v-gra="od"></defs></svg>